<mxfile host="app.diagrams.net" agent="Mozilla/5.0 (Windows NT 10.0; Win64; x64) AppleWebKit/537.36 (KHTML, like Gecko) Chrome/129.0.0.0 Safari/537.36" version="24.7.17">
  <diagram name="Página-1" id="u7Szh9enIpnQS4qXxsTF">
    <mxGraphModel grid="1" page="1" gridSize="10" guides="1" tooltips="1" connect="1" arrows="1" fold="1" pageScale="1" pageWidth="827" pageHeight="1169" math="0" shadow="0">
      <root>
        <mxCell id="0" />
        <mxCell id="1" parent="0" />
        <mxCell id="tmOdqKyxGuzRXgiPJCUc-8" style="edgeStyle=orthogonalEdgeStyle;rounded=0;orthogonalLoop=1;jettySize=auto;html=1;exitX=0.5;exitY=0.5;exitDx=0;exitDy=0;exitPerimeter=0;entryX=0;entryY=0.5;entryDx=0;entryDy=0;" edge="1" parent="1" source="tmOdqKyxGuzRXgiPJCUc-1" target="tmOdqKyxGuzRXgiPJCUc-3">
          <mxGeometry relative="1" as="geometry" />
        </mxCell>
        <mxCell id="tmOdqKyxGuzRXgiPJCUc-12" style="edgeStyle=orthogonalEdgeStyle;rounded=0;orthogonalLoop=1;jettySize=auto;html=1;exitX=0.5;exitY=0.5;exitDx=0;exitDy=0;exitPerimeter=0;entryX=0;entryY=0.5;entryDx=0;entryDy=0;" edge="1" parent="1" source="tmOdqKyxGuzRXgiPJCUc-1" target="tmOdqKyxGuzRXgiPJCUc-5">
          <mxGeometry relative="1" as="geometry" />
        </mxCell>
        <mxCell id="tmOdqKyxGuzRXgiPJCUc-13" style="edgeStyle=orthogonalEdgeStyle;rounded=0;orthogonalLoop=1;jettySize=auto;html=1;exitX=0.5;exitY=0.5;exitDx=0;exitDy=0;exitPerimeter=0;entryX=0;entryY=0.5;entryDx=0;entryDy=0;" edge="1" parent="1" source="tmOdqKyxGuzRXgiPJCUc-1" target="tmOdqKyxGuzRXgiPJCUc-6">
          <mxGeometry relative="1" as="geometry" />
        </mxCell>
        <mxCell id="tmOdqKyxGuzRXgiPJCUc-1" value="Usuario" style="shape=umlActor;verticalLabelPosition=bottom;verticalAlign=top;html=1;outlineConnect=0;fillColor=#B9E0A5;" vertex="1" parent="1">
          <mxGeometry x="150" y="130" width="30" height="60" as="geometry" />
        </mxCell>
        <mxCell id="tmOdqKyxGuzRXgiPJCUc-2" value="" style="swimlane;startSize=0;" vertex="1" parent="1">
          <mxGeometry x="190" y="-20" width="459" height="440" as="geometry" />
        </mxCell>
        <mxCell id="tmOdqKyxGuzRXgiPJCUc-3" value="Alertas de nivel critico" style="ellipse;whiteSpace=wrap;html=1;fillColor=#E6D0DE;" vertex="1" parent="tmOdqKyxGuzRXgiPJCUc-2">
          <mxGeometry x="40" y="30" width="120" height="80" as="geometry" />
        </mxCell>
        <mxCell id="tmOdqKyxGuzRXgiPJCUc-14" style="edgeStyle=orthogonalEdgeStyle;rounded=0;orthogonalLoop=1;jettySize=auto;html=1;exitX=1;exitY=0.5;exitDx=0;exitDy=0;" edge="1" parent="tmOdqKyxGuzRXgiPJCUc-2" source="tmOdqKyxGuzRXgiPJCUc-5" target="tmOdqKyxGuzRXgiPJCUc-9">
          <mxGeometry relative="1" as="geometry" />
        </mxCell>
        <mxCell id="tmOdqKyxGuzRXgiPJCUc-5" value="Generación de reporte anual de inventario" style="ellipse;whiteSpace=wrap;html=1;fillColor=#B9E0A5;" vertex="1" parent="tmOdqKyxGuzRXgiPJCUc-2">
          <mxGeometry x="40" y="140" width="120" height="80" as="geometry" />
        </mxCell>
        <mxCell id="tmOdqKyxGuzRXgiPJCUc-15" style="edgeStyle=orthogonalEdgeStyle;rounded=0;orthogonalLoop=1;jettySize=auto;html=1;exitX=1;exitY=0.5;exitDx=0;exitDy=0;" edge="1" parent="tmOdqKyxGuzRXgiPJCUc-2" source="tmOdqKyxGuzRXgiPJCUc-6" target="tmOdqKyxGuzRXgiPJCUc-10">
          <mxGeometry relative="1" as="geometry" />
        </mxCell>
        <mxCell id="tmOdqKyxGuzRXgiPJCUc-6" value="Ver espacio fisico de inventario" style="ellipse;whiteSpace=wrap;html=1;fillColor=#B9E0A5;" vertex="1" parent="tmOdqKyxGuzRXgiPJCUc-2">
          <mxGeometry x="40" y="250" width="120" height="80" as="geometry" />
        </mxCell>
        <mxCell id="tmOdqKyxGuzRXgiPJCUc-9" value="Resultado del reporte" style="ellipse;whiteSpace=wrap;html=1;fillColor=#E6D0DE;" vertex="1" parent="tmOdqKyxGuzRXgiPJCUc-2">
          <mxGeometry x="230" y="140" width="120" height="80" as="geometry" />
        </mxCell>
        <mxCell id="tmOdqKyxGuzRXgiPJCUc-10" value="Resultado de la busqueda" style="ellipse;whiteSpace=wrap;html=1;fillColor=#E6D0DE;" vertex="1" parent="tmOdqKyxGuzRXgiPJCUc-2">
          <mxGeometry x="230" y="250" width="120" height="80" as="geometry" />
        </mxCell>
        <mxCell id="tmOdqKyxGuzRXgiPJCUc-16" style="edgeStyle=orthogonalEdgeStyle;rounded=0;orthogonalLoop=1;jettySize=auto;html=1;exitX=0.5;exitY=0.5;exitDx=0;exitDy=0;exitPerimeter=0;entryX=1;entryY=0.5;entryDx=0;entryDy=0;" edge="1" parent="1" source="tmOdqKyxGuzRXgiPJCUc-11" target="tmOdqKyxGuzRXgiPJCUc-9">
          <mxGeometry relative="1" as="geometry" />
        </mxCell>
        <mxCell id="tmOdqKyxGuzRXgiPJCUc-17" style="rounded=0;orthogonalLoop=1;jettySize=auto;html=1;exitX=0.5;exitY=0.5;exitDx=0;exitDy=0;exitPerimeter=0;entryX=1;entryY=0.5;entryDx=0;entryDy=0;" edge="1" parent="1" source="tmOdqKyxGuzRXgiPJCUc-11" target="tmOdqKyxGuzRXgiPJCUc-10">
          <mxGeometry relative="1" as="geometry" />
        </mxCell>
        <mxCell id="tmOdqKyxGuzRXgiPJCUc-18" style="edgeStyle=orthogonalEdgeStyle;rounded=0;orthogonalLoop=1;jettySize=auto;html=1;exitX=0.5;exitY=0.5;exitDx=0;exitDy=0;exitPerimeter=0;entryX=1;entryY=0.5;entryDx=0;entryDy=0;" edge="1" parent="1" source="tmOdqKyxGuzRXgiPJCUc-11" target="tmOdqKyxGuzRXgiPJCUc-3">
          <mxGeometry relative="1" as="geometry">
            <Array as="points">
              <mxPoint x="695" y="50" />
            </Array>
          </mxGeometry>
        </mxCell>
        <mxCell id="tmOdqKyxGuzRXgiPJCUc-11" value="Sistema" style="shape=umlActor;verticalLabelPosition=bottom;verticalAlign=top;html=1;outlineConnect=0;fillColor=#E6D0DE;" vertex="1" parent="1">
          <mxGeometry x="680" y="130" width="30" height="60" as="geometry" />
        </mxCell>
        <mxCell id="tmOdqKyxGuzRXgiPJCUc-19" value="&lt;font style=&quot;font-size: 24px;&quot;&gt;Inventario&lt;/font&gt;" style="rounded=0;whiteSpace=wrap;html=1;" vertex="1" parent="1">
          <mxGeometry x="190" y="-80" width="460" height="60" as="geometry" />
        </mxCell>
      </root>
    </mxGraphModel>
  </diagram>
</mxfile>
